<svg width="1920" height="1183" viewBox="0 0 1920 1183" fill="none" xmlns="http://www.w3.org/2000/svg">
<g clip-path="url(#clip0_41_2)">
<path opacity="0.11" d="M-28.6838 75.6609C-29.2009 78.267 -29.3241 80.8783 -28.9545 83.5094C-23.3778 123.204 32.5249 451.187 356.707 446.456C701.759 441.421 840.472 556.925 915.166 731.467C989.859 906.008 1275.39 945.911 1539.44 934.683C1800.88 923.567 1924.58 1071.92 1947.75 1178.5C1948.22 1180.65 1948.46 1181.5 1948.88 1179.35C1961.27 1116.91 2215.77 -168.089 2254.3 -362.641C2257.09 -376.724 2247.76 -389.493 2233.68 -392.286L171.806 -801.282C157.722 -804.076 144.039 -794.923 141.245 -780.839L-28.6838 75.6609Z" fill="url(#paint0_linear_41_2)"/>
<path d="M-28.5798 75.4688C-29.1521 78.3535 -29.253 81.1935 -28.7214 84.0861C-21.7739 121.891 40.1883 398.727 365.505 402.453C714.674 406.452 836.661 447.241 936.403 662.569C1036.15 877.897 1283.87 894.512 1547.54 885.452C1733.58 879.059 1844.63 970.323 1902.37 1066.13C1916.92 1090.29 1967.08 1087.49 1972.57 1059.83C2039.15 724.118 2222.37 -200.007 2254.6 -362.603C2257.39 -376.688 2248.06 -389.459 2233.98 -392.253L171.841 -801.244C157.756 -804.038 144.074 -794.885 141.28 -780.8L-28.5798 75.4688Z" fill="url(#paint1_linear_41_2)"/>
<path opacity="0.14" d="M-29.1039 226.117C-29.1039 226.117 276.083 -307.673 944.336 32.5758C1612.59 372.825 1878.8 335.354 2240.97 -413.621" stroke="#CF5DDE" stroke-width="128"/>
</g>
<defs>
<linearGradient id="paint0_linear_41_2" x1="1202.92" y1="-596.769" x2="891.748" y2="972.121" gradientUnits="userSpaceOnUse">
<stop stop-color="#8253D8"/>
<stop offset="1" stop-color="#2E82EF"/>
</linearGradient>
<linearGradient id="paint1_linear_41_2" x1="1202.94" y1="-596.75" x2="891.77" y2="972.117" gradientUnits="userSpaceOnUse">
<stop stop-color="#8253D8"/>
<stop offset="1" stop-color="#D05DDE"/>
</linearGradient>
<clipPath id="clip0_41_2">
<rect width="2154.51" height="1586.25" fill="white" transform="translate(143.608 -793) rotate(11.2186)"/>
</clipPath>
</defs>
</svg>
