<svg width="72" height="72" viewBox="0 0 72 72" fill="none" xmlns="http://www.w3.org/2000/svg">
<path d="M17 61V57C17 52.006 22.008 48 27 48C33 53 39 53 45 48C49.994 48 55 52.006 55 57V61" fill="#92D3F5"/>
<path d="M26 39C22 39 22 33 22 26C22 19 26 12 36 12C46 12 50 19 50 26C50 33 50 39 46 39" fill="#F1B31C"/>
<path d="M24.936 31C24.936 40 29.873 45 35.936 45C41.873 45 47 40 47 31C47 28 46 26 46 26C43 23 39 18 39 18C35 21 32 24 26 25C26 25 24.936 26 24.936 31Z" fill="#FCEA2B"/>
<path d="M26 39C22 39 22 33 22 26C22 19 26 12 36 12C46 12 50 19 50 26C50 33 50 39 46 39M17 60V57C17 52.006 22.008 48 27 48C33 53 39 53 45 48C49.994 48 55 52.006 55 57V60" stroke="black" stroke-width="2" stroke-linecap="round" stroke-linejoin="round"/>
<path d="M41.873 30C41.873 30.5304 41.6623 31.0391 41.2873 31.4142C40.9122 31.7893 40.4035 32 39.873 32C39.3426 32 38.8339 31.7893 38.4588 31.4142C38.0838 31.0391 37.873 30.5304 37.873 30C37.873 29.4696 38.0838 28.9609 38.4588 28.5858C38.8339 28.2107 39.3426 28 39.873 28C40.4035 28 40.9122 28.2107 41.2873 28.5858C41.6623 28.9609 41.873 29.4696 41.873 30ZM33.873 30C33.873 30.5304 33.6623 31.0391 33.2873 31.4142C32.9122 31.7893 32.4035 32 31.873 32C31.3426 32 30.8339 31.7893 30.4588 31.4142C30.0838 31.0391 29.873 30.5304 29.873 30C29.873 29.4696 30.0838 28.9609 30.4588 28.5858C30.8339 28.2107 31.3426 28 31.873 28C32.4035 28 32.9122 28.2107 33.2873 28.5858C33.6623 28.9609 33.873 29.4696 33.873 30Z" fill="black"/>
<path d="M24.936 31C24.936 40 29.873 45 35.936 45C41.873 45 47 40 47 31C47 28 46 26 46 26C43 23 39 18 39 18C35 21 32 24 26 25C26 25 24.936 26 24.936 31Z" stroke="black" stroke-width="2" stroke-linejoin="round"/>
<path d="M33 38C34.938 38.939 37 39 39 38" stroke="black" stroke-width="2" stroke-linecap="round" stroke-linejoin="round"/>
</svg>
